# xmcd
#
# Track frame offsets:
#	182
#	36535
#	53457
#	83157
#	106502
#	119017
#	153780
#	171770
#	189370
#	209325
#
# Disc length: 3242 seconds
#
# Revision: 1
# Processed by: cddbd v1.4PL0 Copyright (c) Steve Scherf et al.
# Submitted via: EasyCDDAExtractor 5.0.6
#
DISCID=780ca80a
DTITLE=Sons Of Blues/Chi-town Hustlers - Romancing the Blue Stone
DYEAR=1985
DGENRE=Blues
TTITLE0=I'm Going Fishing Baby
TTITLE1=You've Stayed Away Too Long
TTITLE2=The Band Ladies Have The Blues
TTITLE3=In My Lonely Room
TTITLE4=Baby Can I Make You Change Your Mind?
TTITLE5=As The Years Go Pasing By
TTITLE6=I Haven't Been Too Long
TTITLE7=Rock Me Baby
TTITLE8=In The Ghetto
TTITLE9=Fours
EXTD=
EXTT0=
EXTT1=
EXTT2=
EXTT3=
EXTT4=
EXTT5=
EXTT6=
EXTT7=
EXTT8=
EXTT9=
PLAYORDER=
